# xmcd
#
# Track frame offsets:
#	183
#	18335
#	36380
#	56293
#	73788
#	93333
#	108968
#	133965
#	150395
#	170480
#	184548
#	200620
#	216115
#	231643
#	244058
#	259690
#	277145
#	294700
#
# Disc length: 4181
#
# Revision: 3
# Processed by: cddbd v1.5.1PL0 Copyright (c) Steve Scherf et al.
# Submitted via: DiscPlay 4.0.4
# Normalized: r1:DSETVAR1,TDELIM( - );r2:TSWAP
#
DISCID=10105312
DTITLE=Various Artist - Southern State sounds
DYEAR=1900
DGENRE=
TTITLE0=Dr. John - Mac boogie
TTITLE1=Ron Levy s Wild kingdom - Party in Nogales
TTITLE2=Doug Legacy - Ya Ya
TTITLE3=The Neville brothers - Big chief
TTITLE4=Beausoleil - Cajun telephone stomp
TTITLE5=Snooks Eaglin - Oh Lawdy, my baby
TTITLE6=Johnny Adams - Body and fender man
TTITLE7=Irma Thomas - Baby I love you
TTITLE8=The Neville brothers - Woman s gotta have it
TTITLE9=Earl King - Old mr. Bad luck
TTITLE10=Anson Funderburgh and the Rockets with Sam Myers - All your love
TTITLE11=Grady Gaines and the Texas upsetters - Full grain
TTITLE12=Terrance Simien and the Mallet playboys - Zydeco Zambada
TTITLE13=Hubert Sumlin - Down in the bottom
TTITLE14=Roomfull of blues - Three hundred pounds
TTITLE15=Ronnie Earl and the Broadcasters - T-bone boogie
TTITLE16=Dr. John - Memories of Professor Longhair
TTITLE17=Irma Thomas - All I know is the way I feel
EXTD=
EXTT0=
EXTT1=
EXTT2=
EXTT3=
EXTT4=
EXTT5=
EXTT6=
EXTT7=
EXTT8=
EXTT9=
EXTT10=
EXTT11=
EXTT12=
EXTT13=
EXTT14=
EXTT15=
EXTT16=
EXTT17=
PLAYORDER=
